<svg version="1.1" xmlns="http://www.w3.org/2000/svg" viewBox="0 0 69.17193142175677 21.34095943927767">
  <!-- svg-source:excalidraw -->
  <defs>
    <style>
      @font-face {
        font-family: "Virgil";
        src: url("https://excalidraw.com/FG_Virgil.woff2");
      }
      @font-face {
        font-family: "Cascadia";
        src: url("https://excalidraw.com/Cascadia.woff2");
      }
    </style>
  </defs>
  <g><g transform="translate(10.852528404071904 10.433458203226337) rotate(0 23.73343730680648 0.23702151641249714)"><path d="M-0.852528404071927 0.4014070440083741 C7.323606138552229 0.4725587893277406, 40.28684109163781 -0.4904418777674436, 48.31940301768482 -0.4130649279803037 M0.9007554544508456 -0.4334582032263279 C9.081340945313373 -0.12058404341340062, 40.3338218066593 1.0056529246270656, 47.95905375137925 0.907501236051321" stroke="#000000" stroke-width="1" fill="none"></path></g><g transform="translate(10.852528404071904 10.433458203226337) rotate(0 23.73343730680648 0.23702151641249714)"><path d="M26.327915527529044 10.49737845169475 C30.344222780530625 7.185608717648275, 37.79513846314827 5.598041024987867, 48.028630817607045 -0.537934882119298 M25.184630226015074 8.972589070853793 C31.853813331951795 6.569538203418342, 37.26073277384582 4.400111908709054, 48.10968187201768 1.877512573711574" stroke="#000000" stroke-width="1" fill="none"></path></g><g transform="translate(10.852528404071904 10.433458203226337) rotate(0 23.73343730680648 0.23702151641249714)"><path d="M26.580155544567972 -5.6439953032504455 C30.423304723299875 -5.107038043557184, 37.81404863893691 -2.844086727651444, 48.028630817607045 -0.537934882119298 M25.436870243054003 -7.168784684091403 C31.990971918258943 -5.249376003426303, 37.33037755661071 -3.098450795680794, 48.10968187201768 1.877512573711574" stroke="#000000" stroke-width="1" fill="none"></path></g></g></svg>