<svg id="svg" version="1.1" xmlns="http://www.w3.org/2000/svg" xmlns:xlink="http://www.w3.org/1999/xlink" width="400" height="160.5839416058394" viewBox="0, 0, 400,160.5839416058394"><g id="svgg"><path id="path0" d="M349.750 13.288 C 349.195 13.410,349.000 13.842,349.000 14.949 L 349.000 16.000 347.125 16.018 C 343.719 16.051,343.286 16.143,343.116 16.868 C 343.025 17.251,342.689 17.767,342.231 18.225 L 341.493 18.963 339.686 19.025 C 337.418 19.103,337.333 19.163,337.333 20.687 L 337.333 21.833 336.843 21.833 C 336.574 21.833,336.313 21.897,336.265 21.976 C 336.217 22.054,335.859 22.086,335.470 22.047 C 334.530 21.953,334.333 22.238,334.333 23.699 L 334.333 24.833 333.239 24.833 C 331.649 24.833,331.565 24.910,331.427 26.494 L 331.310 27.833 330.270 27.833 C 328.766 27.833,328.625 27.985,328.535 29.712 L 328.460 31.137 327.871 31.247 C 327.108 31.391,326.408 32.102,326.174 32.974 C 326.071 33.355,325.913 33.667,325.822 33.667 C 325.731 33.667,325.655 33.910,325.654 34.208 C 325.653 34.506,325.611 35.819,325.560 37.125 L 325.468 39.500 324.502 39.500 C 323.800 39.500,323.430 39.587,323.143 39.819 L 322.750 40.137 322.702 51.694 C 322.642 66.332,322.527 65.316,324.260 65.525 C 325.632 65.690,325.451 65.286,325.556 68.417 C 325.716 73.191,326.160 74.159,328.191 74.166 C 328.417 74.167,328.475 74.398,328.525 75.493 C 328.598 77.100,328.648 77.157,330.112 77.279 C 331.168 77.368,331.335 77.337,331.929 76.949 C 333.691 75.798,335.300 76.583,335.380 78.635 C 335.388 78.826,336.224 79.391,336.528 79.410 C 336.589 79.414,336.690 79.468,336.752 79.530 C 336.815 79.593,336.973 79.602,337.105 79.552 C 337.423 79.430,337.994 80.110,338.025 80.651 C 338.039 80.889,338.058 81.190,338.068 81.320 C 338.077 81.450,338.179 81.587,338.293 81.626 C 338.408 81.664,338.460 81.764,338.408 81.848 C 338.324 81.983,338.447 82.029,338.773 81.986 C 338.832 81.978,338.943 82.072,339.020 82.194 C 339.122 82.354,339.162 82.360,339.164 82.212 C 339.166 82.064,339.280 82.051,339.583 82.167 C 339.813 82.254,340.000 82.288,340.000 82.242 C 340.000 82.118,341.362 82.838,341.626 83.103 C 341.753 83.230,341.792 83.333,341.713 83.333 C 341.634 83.333,341.572 83.558,341.576 83.833 C 341.580 84.108,341.627 84.333,341.680 84.333 C 341.734 84.333,341.778 84.443,341.778 84.576 C 341.778 84.709,341.720 84.783,341.650 84.740 C 341.579 84.696,341.498 84.906,341.469 85.205 C 341.440 85.505,341.342 85.760,341.250 85.772 C 340.529 85.869,340.333 86.056,340.334 86.644 C 340.334 88.082,341.016 88.666,342.945 88.884 L 343.807 88.981 343.753 88.408 C 343.717 88.018,343.761 87.865,343.892 87.930 C 343.997 87.982,343.918 87.879,343.716 87.701 C 343.381 87.405,343.371 87.348,343.603 87.063 C 343.743 86.891,343.803 86.855,343.737 86.984 C 343.655 87.142,343.681 87.178,343.816 87.094 C 343.970 86.999,343.967 86.909,343.800 86.703 C 343.619 86.480,343.622 86.459,343.820 86.579 C 343.995 86.684,344.030 86.653,343.955 86.456 C 343.818 86.100,344.140 85.862,344.929 85.737 C 345.289 85.680,345.624 85.609,345.673 85.579 C 346.266 85.216,346.998 86.496,346.582 87.168 C 346.534 87.246,346.576 87.360,346.675 87.422 C 346.796 87.496,346.764 87.633,346.581 87.836 C 346.325 88.119,346.330 88.163,346.653 88.486 C 347.046 88.880,347.090 89.019,346.802 88.958 C 345.900 88.769,347.020 90.838,348.000 91.172 C 348.412 91.313,348.905 91.515,349.095 91.620 C 349.520 91.858,354.544 91.932,366.417 91.876 C 378.252 91.820,377.714 91.908,377.929 90.009 C 378.016 89.243,378.108 88.998,378.313 88.991 C 378.462 88.985,379.408 88.985,380.417 88.991 C 383.560 89.007,383.827 88.862,383.831 87.125 C 383.834 85.852,383.693 85.940,385.639 85.999 C 386.209 86.016,386.629 85.939,386.806 85.785 C 386.959 85.653,387.284 85.497,387.529 85.439 C 388.221 85.275,388.922 84.586,389.141 83.853 C 389.352 83.148,389.447 83.092,390.711 82.920 C 391.962 82.750,392.391 82.273,392.405 81.039 C 392.412 80.484,392.454 80.035,392.500 80.042 C 392.602 80.057,393.396 79.860,394.126 79.638 C 395.073 79.351,395.576 77.654,395.663 74.458 C 395.665 74.390,396.187 74.333,396.824 74.333 C 398.467 74.333,398.500 74.269,398.500 71.046 L 398.500 68.500 399.250 68.500 L 400.000 68.500 400.000 52.500 L 400.000 36.500 399.250 36.500 L 398.500 36.500 398.500 34.271 C 398.500 30.841,398.403 30.667,396.499 30.667 L 395.715 30.667 395.601 29.292 C 395.538 28.535,395.416 27.892,395.330 27.862 C 395.243 27.832,395.090 27.501,394.989 27.127 C 394.758 26.268,394.055 25.557,393.295 25.414 C 392.652 25.294,392.421 24.970,392.255 23.959 C 392.041 22.660,390.306 21.850,387.708 21.838 L 386.833 21.833 386.833 20.679 C 386.833 19.149,386.679 19.000,385.093 19.000 L 383.876 19.000 383.762 17.991 C 383.573 16.320,382.807 16.056,377.977 16.001 C 377.919 16.001,377.820 15.661,377.758 15.247 C 377.448 13.176,377.462 13.178,362.234 13.198 C 355.551 13.207,349.933 13.247,349.750 13.288 M331.375 78.083 C 331.377 78.450,331.411 78.580,331.451 78.373 C 331.491 78.166,331.490 77.866,331.448 77.706 C 331.406 77.547,331.374 77.717,331.375 78.083 M331.583 80.000 C 331.640 80.092,331.851 80.161,332.052 80.155 C 332.404 80.144,332.405 80.138,332.083 80.000 C 331.625 79.803,331.461 79.803,331.583 80.000 M334.336 82.458 C 334.337 82.527,334.408 82.694,334.493 82.829 C 334.686 83.132,334.911 82.942,334.776 82.591 C 334.676 82.331,334.331 82.227,334.336 82.458 M337.333 85.481 C 337.333 85.664,337.816 86.073,337.916 85.973 C 337.957 85.932,337.842 85.772,337.662 85.618 C 337.481 85.463,337.333 85.402,337.333 85.481 M343.472 88.027 C 343.635 88.241,343.637 88.332,343.482 88.428 C 343.355 88.506,343.325 88.481,343.401 88.359 C 343.466 88.253,343.440 88.167,343.343 88.167 C 343.246 88.167,343.167 88.042,343.167 87.889 C 343.167 87.736,343.188 87.642,343.214 87.681 C 343.240 87.719,343.356 87.875,343.472 88.027 " stroke="none" fill="#fcbc04" fill-rule="evenodd"></path><path id="path1" d="M30.671 1.375 C 30.693 2.131,30.700 3.144,30.688 3.625 L 30.667 4.500 29.512 4.500 C 27.834 4.500,27.843 4.484,27.810 7.635 C 27.795 9.073,27.775 10.925,27.766 11.750 L 27.750 13.250 26.566 13.196 C 24.817 13.116,24.818 13.115,24.857 16.266 C 24.894 19.236,25.007 18.958,23.687 19.139 C 22.171 19.346,22.083 19.484,22.083 21.656 C 22.083 22.652,22.028 23.381,21.961 23.275 C 21.894 23.170,21.837 24.152,21.836 25.458 L 21.833 27.833 20.579 27.833 C 19.010 27.833,18.962 27.922,19.004 30.750 C 19.021 31.850,19.027 33.594,19.017 34.625 L 19.000 36.500 17.792 36.503 C 16.215 36.506,16.101 36.588,16.202 37.643 C 16.247 38.108,16.220 38.449,16.142 38.401 C 16.064 38.353,16.000 39.208,16.000 40.301 L 16.000 42.288 14.899 42.376 C 13.107 42.520,13.223 42.031,13.177 49.583 L 13.167 51.250 11.792 51.250 L 10.417 51.250 10.308 52.167 C 10.248 52.671,10.192 53.954,10.183 55.019 L 10.167 56.954 9.128 57.048 C 7.540 57.192,7.235 57.990,7.339 61.728 C 7.360 62.473,7.367 63.655,7.355 64.353 L 7.333 65.623 6.074 65.704 C 4.376 65.813,4.478 65.536,4.374 70.317 C 4.285 74.420,4.277 74.500,3.933 74.517 C 3.741 74.526,3.133 74.545,2.583 74.559 L 1.583 74.583 1.561 76.000 C 1.548 76.779,1.529 78.073,1.519 78.875 L 1.500 80.333 0.708 80.360 L -0.083 80.386 0.750 80.500 L 1.583 80.614 0.792 80.640 L 0.000 80.667 0.000 83.167 L 0.000 85.667 0.792 85.693 L 1.583 85.719 0.750 85.832 C 0.292 85.895,4.686 85.956,10.516 85.969 C 19.341 85.988,21.168 85.953,21.432 85.759 C 21.768 85.514,21.803 84.950,21.825 79.311 L 21.833 77.372 23.074 77.256 C 24.819 77.093,24.744 77.292,24.786 72.766 C 24.807 70.649,24.825 68.823,24.828 68.708 C 24.832 68.564,25.157 68.500,25.885 68.500 C 27.698 68.500,27.577 68.863,27.659 63.208 L 27.667 62.667 42.333 62.667 L 57.000 62.667 57.022 64.125 C 57.035 64.927,57.032 66.146,57.016 66.833 C 56.978 68.519,57.020 68.564,58.566 68.465 C 59.648 68.395,59.835 68.422,59.842 68.650 C 59.846 68.797,59.865 70.729,59.883 72.944 C 59.922 77.561,59.798 77.231,61.513 77.309 L 62.833 77.369 62.852 79.643 C 62.862 80.893,62.856 82.711,62.837 83.682 C 62.788 86.280,61.399 86.009,74.519 85.959 C 87.168 85.911,85.993 86.073,85.997 84.375 C 85.999 83.802,86.056 83.333,86.125 83.333 C 86.194 83.333,86.250 83.914,86.250 84.625 L 86.250 85.917 94.917 85.917 L 103.583 85.917 103.614 84.917 C 103.631 84.367,103.650 75.877,103.656 66.052 L 103.667 48.187 104.814 48.074 C 106.473 47.910,106.412 48.004,106.447 45.548 C 106.463 44.376,106.482 43.179,106.488 42.889 L 106.500 42.362 107.745 42.245 C 109.258 42.103,109.320 42.037,109.374 40.485 L 109.417 39.250 110.633 39.305 C 112.228 39.377,112.333 39.281,112.333 37.747 L 112.333 36.534 116.458 36.471 C 121.706 36.391,121.263 36.293,121.193 37.522 C 121.092 39.287,121.120 39.319,122.686 39.316 C 123.428 39.314,124.064 39.341,124.099 39.377 C 124.134 39.412,124.182 49.897,124.206 62.678 L 124.250 85.917 132.854 85.957 L 141.459 85.998 141.563 85.478 C 141.620 85.192,141.667 76.685,141.667 66.573 L 141.667 48.187 142.831 48.072 C 144.478 47.910,144.410 48.105,144.460 43.445 C 144.484 41.243,144.527 39.418,144.555 39.389 C 144.583 39.361,145.651 39.315,146.928 39.287 C 150.014 39.220,150.123 39.153,150.211 37.250 L 150.250 36.417 154.621 36.427 C 159.655 36.439,159.197 36.287,159.227 37.949 L 159.250 39.250 160.000 39.279 C 160.412 39.295,161.031 39.314,161.375 39.321 L 162.000 39.333 162.020 62.125 C 162.031 74.660,162.088 85.142,162.146 85.417 L 162.253 85.917 170.876 85.957 L 179.499 85.998 179.498 58.555 C 179.497 38.677,179.445 31.051,179.311 30.890 C 179.188 30.741,178.724 30.667,177.918 30.667 L 176.711 30.667 176.634 27.995 C 176.544 24.871,176.583 24.944,174.929 24.861 L 173.702 24.799 173.589 23.748 C 173.428 22.240,173.274 22.142,170.789 21.963 C 167.770 21.746,145.065 21.868,144.830 22.103 C 144.728 22.205,144.601 22.861,144.548 23.561 L 144.452 24.833 143.934 24.857 C 143.650 24.869,143.123 24.862,142.764 24.840 C 139.919 24.664,138.841 25.196,138.822 26.784 C 138.808 27.914,138.531 27.549,138.512 26.375 C 138.492 25.188,137.048 24.613,134.667 24.845 C 134.438 24.867,133.931 24.874,133.542 24.859 L 132.833 24.833 132.831 23.625 C 132.829 22.960,132.757 22.304,132.670 22.167 C 132.532 21.948,130.934 21.917,119.940 21.917 C 105.317 21.917,106.666 21.732,106.667 23.734 L 106.667 24.917 105.364 24.863 C 103.710 24.795,103.621 24.886,103.695 26.560 C 103.725 27.246,103.684 27.762,103.604 27.712 C 103.522 27.661,103.510 26.427,103.577 24.895 L 103.696 22.170 103.254 22.001 C 102.766 21.816,87.602 21.797,86.750 21.981 C 86.131 22.114,86.207 18.054,86.150 53.833 C 86.124 69.921,86.078 82.596,86.047 82.000 C 85.975 80.582,85.704 80.333,84.232 80.333 L 83.167 80.333 83.150 78.792 C 83.141 77.944,83.147 76.634,83.164 75.881 C 83.241 72.426,83.003 71.830,81.486 71.685 L 80.417 71.583 80.323 68.854 C 80.213 65.633,80.233 65.667,78.468 65.667 L 77.333 65.667 77.323 63.958 C 77.276 56.501,77.406 56.998,75.510 57.003 C 74.693 57.004,74.480 57.050,74.667 57.182 C 74.844 57.307,74.851 57.341,74.690 57.298 C 74.514 57.251,74.466 56.749,74.474 54.994 C 74.479 53.760,74.430 52.413,74.366 52.000 L 74.250 51.250 72.956 51.234 C 71.336 51.214,71.512 51.709,71.461 47.036 C 71.409 42.344,71.470 42.513,69.794 42.378 L 68.719 42.292 68.604 38.688 C 68.447 33.747,68.412 33.667,66.422 33.667 L 65.667 33.667 65.648 32.958 C 65.638 32.569,65.645 31.414,65.663 30.392 C 65.708 27.868,65.654 27.781,64.084 27.860 L 62.865 27.922 62.842 25.502 C 62.830 24.172,62.767 23.065,62.702 23.042 C 62.637 23.019,62.607 22.269,62.636 21.375 C 62.705 19.272,62.624 19.155,61.029 19.041 L 59.833 18.955 59.815 18.186 C 59.805 17.763,59.812 16.585,59.830 15.568 C 59.871 13.260,59.806 13.167,58.155 13.167 L 57.000 13.167 57.000 10.657 C 57.000 9.276,56.944 8.182,56.875 8.224 C 56.806 8.267,56.775 7.571,56.806 6.678 C 56.878 4.620,56.787 4.500,55.155 4.500 L 54.000 4.500 53.981 3.292 C 53.970 2.627,53.977 1.615,53.996 1.042 L 54.030 0.000 42.332 0.000 L 30.633 0.000 30.671 1.375 M299.333 13.073 C 299.333 20.264,299.277 26.182,299.208 26.225 C 299.140 26.267,299.083 25.990,299.083 25.609 L 299.083 24.917 298.000 24.886 C 297.404 24.868,296.796 24.850,296.649 24.844 C 296.439 24.836,296.360 24.576,296.282 23.641 C 296.124 21.757,297.008 21.865,281.750 21.865 C 266.472 21.865,267.427 21.747,267.218 23.657 L 267.083 24.898 265.750 24.907 L 264.417 24.917 264.388 25.667 C 264.372 26.079,264.353 26.698,264.346 27.042 L 264.333 27.667 263.407 27.667 C 262.897 27.667,262.515 27.723,262.558 27.792 C 262.600 27.860,262.361 27.917,262.026 27.917 L 261.417 27.917 261.401 29.210 C 261.381 30.790,261.445 30.727,259.872 30.739 L 258.583 30.750 258.583 31.526 C 258.583 31.953,258.527 32.267,258.458 32.225 C 258.390 32.182,258.333 32.489,258.333 32.907 L 258.333 33.667 257.282 33.667 C 255.436 33.667,255.552 33.216,255.510 40.601 L 255.500 42.285 254.294 42.386 C 253.477 42.455,253.026 42.572,252.895 42.751 C 252.426 43.393,252.360 66.381,252.824 67.612 C 253.056 68.228,253.223 68.310,254.528 68.446 L 255.500 68.547 255.503 70.065 C 255.515 76.928,255.583 77.167,257.508 77.167 C 258.277 77.167,258.333 77.195,258.333 77.583 C 258.333 77.813,258.390 78.000,258.458 78.000 C 258.527 78.000,258.583 78.468,258.583 79.041 L 258.583 80.083 259.750 80.109 C 260.392 80.124,261.010 80.142,261.125 80.151 C 261.273 80.162,261.333 80.552,261.333 81.494 C 261.333 83.089,261.417 83.167,263.156 83.167 C 264.160 83.167,264.336 83.210,264.350 83.458 C 264.359 83.619,264.377 84.237,264.391 84.833 L 264.417 85.917 265.722 85.929 C 267.197 85.944,267.325 86.036,267.333 87.083 C 267.347 89.042,266.369 88.904,280.667 88.959 C 296.490 89.020,295.940 89.081,296.166 87.256 C 296.338 85.872,296.247 85.945,297.792 85.930 L 299.083 85.917 299.083 84.813 C 299.083 84.139,299.149 83.734,299.252 83.774 C 299.344 83.809,299.419 84.306,299.418 84.877 L 299.417 85.917 307.992 85.956 C 314.654 85.987,316.596 85.949,316.697 85.789 C 316.769 85.676,316.829 66.327,316.831 42.792 L 316.833 0.000 308.083 0.000 L 299.333 0.000 299.333 13.073 M29.333 5.125 C 29.000 5.292,28.625 5.666,28.459 6.000 C 28.298 6.321,28.170 6.471,28.173 6.333 C 28.188 5.682,29.015 4.854,29.667 4.839 C 29.804 4.836,29.654 4.965,29.333 5.125 M55.588 5.032 C 56.016 5.227,56.500 5.936,56.500 6.367 C 56.500 6.486,56.368 6.321,56.208 6.000 C 56.041 5.666,55.667 5.292,55.333 5.125 C 54.683 4.800,54.902 4.720,55.588 5.032 M24.833 19.649 C 24.833 19.730,24.658 19.841,24.444 19.895 C 23.776 20.063,23.181 20.657,22.732 21.607 C 22.494 22.110,22.272 22.494,22.239 22.461 C 22.137 22.359,22.655 20.792,22.931 20.372 C 23.316 19.784,24.833 19.207,24.833 19.649 M61.734 19.875 C 61.965 20.081,62.197 20.475,62.250 20.750 C 62.341 21.226,62.333 21.222,62.086 20.662 C 61.944 20.338,61.622 19.946,61.372 19.791 C 61.121 19.636,61.006 19.507,61.116 19.504 C 61.225 19.502,61.504 19.669,61.734 19.875 M204.422 21.958 C 203.084 22.040,203.000 22.137,203.000 23.604 L 203.000 24.833 202.292 24.836 C 197.074 24.853,197.167 24.819,197.167 26.699 L 197.167 27.833 195.958 27.836 C 194.355 27.839,194.301 27.887,194.205 29.383 C 194.117 30.750,194.029 30.833,192.664 30.833 C 191.570 30.833,191.425 31.191,191.338 34.110 C 191.263 36.607,191.247 43.456,191.313 44.623 L 191.344 45.163 199.963 45.123 L 208.583 45.083 208.625 44.250 C 208.721 42.350,208.689 42.394,210.029 42.281 C 211.506 42.158,211.531 42.131,211.630 40.592 L 211.711 39.333 212.918 39.333 C 214.451 39.333,214.559 39.217,214.472 37.668 C 214.435 37.026,214.446 36.497,214.495 36.492 C 214.543 36.488,217.227 36.469,220.458 36.451 L 226.333 36.417 226.333 37.675 C 226.333 39.248,226.416 39.333,227.950 39.333 L 229.167 39.333 229.167 42.250 L 229.167 45.167 227.958 45.169 C 227.294 45.171,226.841 45.229,226.952 45.300 C 227.062 45.370,226.422 45.399,225.528 45.363 C 223.581 45.284,223.551 45.307,223.397 46.971 L 223.285 48.167 218.184 48.187 C 201.101 48.254,203.130 48.037,203.029 49.812 L 202.965 50.952 201.108 51.077 C 200.086 51.146,198.800 51.214,198.250 51.226 L 197.250 51.250 197.231 52.547 C 197.207 54.147,197.489 53.979,194.693 54.064 C 191.375 54.164,191.293 54.247,191.354 57.417 C 191.398 59.676,191.349 59.768,190.043 59.890 C 188.279 60.055,188.417 59.304,188.417 68.742 C 188.417 73.268,188.472 77.027,188.539 77.094 C 188.606 77.161,189.214 77.252,189.890 77.295 L 191.120 77.374 191.239 78.895 C 191.305 79.732,191.348 80.955,191.335 81.613 C 191.307 83.054,191.433 83.167,193.072 83.167 L 194.167 83.167 194.169 84.375 C 194.173 85.942,194.246 86.042,195.354 85.996 C 197.274 85.916,197.167 85.848,197.167 87.135 C 197.167 89.117,195.520 88.910,211.695 88.959 C 229.625 89.013,228.856 89.094,229.060 87.139 C 229.192 85.872,229.057 85.977,230.605 85.944 L 231.903 85.917 232.016 85.367 C 232.203 84.448,232.250 84.626,232.261 86.307 C 232.274 88.210,232.438 88.603,233.294 88.784 C 234.745 89.092,254.797 88.941,255.119 88.619 C 255.528 88.210,255.583 75.252,255.177 74.763 C 254.980 74.526,254.685 74.479,253.511 74.503 C 252.726 74.519,251.511 74.525,250.811 74.516 L 249.539 74.500 249.468 73.394 C 249.379 71.994,249.052 71.667,247.741 71.667 C 247.253 71.667,246.812 71.600,246.762 71.519 C 246.711 71.437,246.668 62.312,246.665 51.240 C 246.661 36.849,246.607 31.046,246.476 30.888 C 246.354 30.741,245.881 30.667,245.063 30.667 L 243.833 30.667 243.831 29.625 C 243.828 28.016,243.728 27.790,243.060 27.868 C 242.752 27.904,242.500 27.873,242.500 27.800 C 242.500 27.727,242.125 27.667,241.667 27.667 C 240.743 27.667,240.776 27.721,240.829 26.286 C 240.879 24.926,240.727 24.794,239.177 24.859 L 237.917 24.912 237.803 23.765 C 237.652 22.239,237.551 22.163,235.478 21.991 C 233.847 21.856,206.551 21.827,204.422 21.958 M171.365 22.506 C 172.237 22.737,172.762 23.196,173.009 23.943 C 173.268 24.730,173.100 25.038,172.795 24.333 C 172.477 23.598,171.965 23.133,170.958 22.665 C 170.240 22.331,169.828 22.001,170.406 22.223 C 170.538 22.274,170.969 22.401,171.365 22.506 M235.354 22.418 C 236.747 22.897,237.134 23.268,237.397 24.375 C 237.528 24.924,237.240 24.998,237.073 24.458 C 236.867 23.795,236.356 23.215,235.712 22.913 C 235.050 22.603,234.357 22.167,234.525 22.167 C 234.580 22.167,234.953 22.280,235.354 22.418 M108.167 22.625 C 107.833 22.792,107.459 23.166,107.292 23.500 C 107.132 23.821,107.003 23.971,107.006 23.833 C 107.021 23.182,107.848 22.354,108.500 22.339 C 108.638 22.336,108.487 22.465,108.167 22.625 M268.917 22.567 C 268.263 22.855,267.900 23.282,267.696 24.000 C 267.605 24.321,267.523 24.450,267.515 24.286 C 267.471 23.424,268.354 22.326,269.079 22.340 C 269.342 22.345,269.305 22.395,268.917 22.567 M295.147 22.605 C 295.561 22.895,296.010 23.796,295.985 24.286 C 295.977 24.450,295.895 24.321,295.804 24.000 C 295.600 23.282,295.237 22.855,294.583 22.567 C 294.195 22.395,294.158 22.345,294.421 22.340 C 294.607 22.336,294.934 22.456,295.147 22.605 M136.296 25.412 C 137.035 25.570,137.771 26.221,138.002 26.924 C 138.312 27.861,138.102 27.945,137.655 27.064 C 137.344 26.453,137.057 26.157,136.501 25.875 C 136.094 25.668,135.646 25.372,135.506 25.217 C 135.289 24.978,135.289 24.963,135.500 25.115 C 135.637 25.214,135.996 25.347,136.296 25.412 M141.727 25.417 C 141.674 25.554,141.519 25.667,141.383 25.667 C 140.872 25.667,140.173 26.253,139.744 27.041 C 139.232 27.981,139.068 27.984,139.321 27.048 C 139.589 26.050,140.031 25.715,141.786 25.178 C 141.806 25.172,141.780 25.279,141.727 25.417 M175.728 25.512 C 175.969 25.702,176.161 25.946,176.154 26.054 C 176.145 26.178,176.108 26.169,176.052 26.028 C 176.003 25.906,175.728 25.662,175.440 25.487 C 175.152 25.311,175.000 25.168,175.103 25.167 C 175.205 25.167,175.486 25.322,175.728 25.512 M198.420 25.694 C 198.167 25.893,197.853 26.286,197.722 26.569 L 197.484 27.083 197.581 26.583 C 197.678 26.088,198.352 25.333,198.698 25.333 C 198.797 25.333,198.672 25.496,198.420 25.694 M41.664 26.505 C 41.477 26.854,40.553 27.346,40.130 27.321 C 40.013 27.314,40.179 27.214,40.500 27.100 C 40.821 26.985,41.233 26.663,41.417 26.383 C 41.779 25.830,41.974 25.926,41.664 26.505 M42.497 27.036 C 42.501 27.473,43.036 27.667,44.239 27.667 L 45.333 27.667 45.342 29.875 C 45.368 36.745,45.237 36.184,46.858 36.358 C 48.357 36.518,48.219 36.145,48.187 39.955 C 48.144 44.968,48.172 45.052,49.928 45.141 L 51.167 45.203 51.167 46.685 L 51.167 48.167 42.333 48.167 L 33.500 48.167 33.500 46.690 L 33.500 45.214 34.472 45.113 C 36.388 44.912,36.370 44.957,36.429 40.251 L 36.475 36.585 36.863 36.476 C 37.076 36.416,37.587 36.358,38.000 36.347 C 39.369 36.312,39.299 36.655,39.325 29.893 L 39.333 27.703 40.592 27.640 C 41.935 27.572,42.157 27.434,42.167 26.667 C 42.173 26.178,42.493 26.536,42.497 27.036 M194.167 31.315 C 194.167 31.397,193.991 31.508,193.777 31.562 C 193.109 31.729,192.514 32.324,192.065 33.274 C 191.827 33.777,191.602 34.158,191.566 34.121 C 191.446 34.002,192.162 32.115,192.446 31.801 C 192.837 31.369,194.167 30.994,194.167 31.315 M67.359 34.782 C 67.603 35.011,67.883 35.519,67.981 35.911 C 68.080 36.303,68.205 36.765,68.259 36.937 C 68.313 37.109,68.071 36.727,67.720 36.088 C 67.202 35.143,66.951 34.863,66.375 34.588 C 65.985 34.402,65.667 34.200,65.667 34.139 C 65.667 33.902,66.939 34.385,67.359 34.782 M257.168 34.265 C 256.543 34.536,256.367 34.755,256.040 35.665 L 255.830 36.250 255.917 35.675 C 256.027 34.956,256.410 34.360,256.885 34.168 C 257.519 33.913,257.777 34.001,257.168 34.265 M38.821 35.030 C 38.601 35.561,37.572 36.167,36.917 36.151 C 36.733 36.147,36.935 36.035,37.364 35.903 C 38.194 35.648,38.825 35.023,38.846 34.436 C 38.854 34.242,38.899 34.181,38.947 34.300 C 38.994 34.419,38.938 34.748,38.821 35.030 M47.302 35.903 C 47.732 36.035,47.954 36.149,47.795 36.155 C 47.313 36.174,46.167 35.646,45.995 35.324 C 45.723 34.815,45.815 34.765,46.177 35.226 C 46.370 35.470,46.865 35.769,47.302 35.903 M290.500 37.406 C 290.500 39.268,290.598 39.379,292.169 39.308 L 293.500 39.248 293.500 40.425 C 293.500 42.003,293.634 42.155,295.127 42.281 L 296.333 42.382 296.333 43.452 C 296.333 45.031,296.473 45.203,297.722 45.162 C 298.287 45.143,298.881 45.137,299.042 45.147 C 299.316 45.165,299.333 45.705,299.333 53.982 L 299.333 62.797 298.095 62.859 C 296.415 62.944,296.362 63.061,296.343 66.708 C 296.336 68.150,296.278 68.671,296.125 68.682 C 296.010 68.691,295.392 68.710,294.750 68.724 L 293.583 68.750 293.583 70.125 L 293.583 71.500 292.214 71.500 C 290.572 71.500,290.500 71.576,290.500 73.322 L 290.500 74.500 286.083 74.500 L 281.667 74.500 281.667 73.365 C 281.667 71.584,281.683 71.594,278.570 71.543 C 275.444 71.493,275.800 71.771,275.814 69.392 C 275.833 66.227,275.648 65.880,273.904 65.818 L 272.917 65.782 272.966 63.253 C 273.070 57.944,272.842 57.182,271.101 57.043 L 270.000 56.954 270.000 55.394 L 270.000 53.833 270.982 53.833 C 272.825 53.833,272.964 53.421,272.988 47.894 L 273.000 45.205 274.068 45.091 C 275.681 44.918,275.735 44.819,275.799 41.864 C 275.828 40.523,275.874 39.404,275.899 39.378 C 275.925 39.352,277.127 39.313,278.570 39.291 C 281.660 39.243,281.667 39.239,281.667 37.554 L 281.667 36.506 285.625 36.458 C 287.802 36.432,289.790 36.393,290.042 36.372 C 290.498 36.333,290.500 36.338,290.500 37.406 M149.833 36.766 C 149.833 37.635,149.056 38.492,147.989 38.799 C 147.674 38.890,147.267 39.019,147.083 39.086 C 146.585 39.268,147.415 38.676,148.247 38.255 C 148.714 38.019,149.017 37.705,149.250 37.214 C 149.595 36.487,149.833 36.304,149.833 36.766 M281.244 37.715 C 281.095 38.309,280.498 38.814,279.825 38.914 C 279.345 38.986,279.320 38.977,279.676 38.856 C 280.510 38.575,280.815 38.326,281.021 37.754 C 281.258 37.101,281.405 37.074,281.244 37.715 M111.751 38.666 C 111.585 38.850,111.388 39.000,111.313 39.000 C 111.239 39.000,111.345 38.827,111.548 38.617 C 111.996 38.151,112.177 38.195,111.751 38.666 M109.000 40.596 C 109.000 40.959,108.093 41.834,107.721 41.830 C 107.520 41.827,107.598 41.736,107.952 41.562 C 108.247 41.416,108.584 41.081,108.701 40.815 C 108.945 40.266,109.000 40.225,109.000 40.596 M210.918 41.499 C 210.751 41.683,210.554 41.833,210.480 41.833 C 210.406 41.833,210.511 41.661,210.714 41.450 C 211.162 40.984,211.344 41.028,210.918 41.499 M36.069 42.292 C 35.734 43.764,34.867 44.673,33.808 44.663 C 33.500 44.660,33.592 44.562,34.240 44.204 C 34.892 43.845,35.168 43.550,35.565 42.792 C 36.127 41.718,36.220 41.626,36.069 42.292 M275.254 42.932 C 274.971 43.870,274.632 44.264,273.895 44.507 C 273.102 44.769,272.792 44.600,273.508 44.296 C 274.115 44.038,275.000 43.133,275.000 42.771 C 275.000 42.596,275.315 42.167,275.442 42.167 C 275.465 42.167,275.380 42.511,275.254 42.932 M254.665 42.888 C 253.774 43.186,253.541 43.369,253.250 44.002 C 252.995 44.558,252.988 44.562,253.088 44.084 C 253.259 43.274,254.049 42.670,254.917 42.686 C 255.117 42.690,255.017 42.770,254.665 42.888 M14.627 43.094 C 14.153 43.351,13.676 44.097,13.654 44.617 C 13.646 44.789,13.605 44.829,13.557 44.710 C 13.312 44.104,14.183 42.823,14.829 42.840 C 14.973 42.844,14.886 42.954,14.627 43.094 M70.358 43.013 C 70.718 43.206,71.175 44.129,71.154 44.620 C 71.147 44.783,71.051 44.618,70.941 44.254 C 70.810 43.817,70.549 43.461,70.179 43.212 C 69.610 42.828,69.741 42.683,70.358 43.013 M49.614 44.480 C 49.950 44.676,49.842 44.723,49.424 44.563 C 49.276 44.506,49.045 44.247,48.911 43.988 C 48.557 43.305,48.612 43.159,48.989 43.777 C 49.166 44.067,49.447 44.383,49.614 44.480 M106.003 46.575 C 105.880 46.946,105.624 47.266,105.328 47.420 C 104.618 47.787,104.540 47.719,105.178 47.289 C 105.510 47.065,105.803 46.689,105.895 46.369 C 105.980 46.071,106.084 45.861,106.125 45.903 C 106.166 45.944,106.111 46.246,106.003 46.575 M144.000 46.513 C 144.000 46.812,143.047 47.667,142.721 47.660 C 142.531 47.656,142.619 47.566,142.958 47.418 C 143.256 47.289,143.587 46.992,143.693 46.758 C 143.900 46.304,144.000 46.224,144.000 46.513 M252.782 47.958 C 252.740 48.119,252.705 47.987,252.705 47.667 C 252.705 47.346,252.740 47.215,252.782 47.375 C 252.823 47.535,252.823 47.798,252.782 47.958 M205.000 48.696 C 204.282 48.900,203.855 49.263,203.567 49.917 C 203.446 50.192,203.343 50.319,203.340 50.200 C 203.317 49.431,204.377 48.499,205.250 48.522 C 205.434 48.526,205.321 48.605,205.000 48.696 M272.414 51.455 C 272.052 52.703,271.214 53.479,270.208 53.496 C 269.840 53.503,269.987 53.206,270.404 53.101 C 271.122 52.921,271.797 52.190,272.196 51.160 C 272.665 49.951,272.797 50.130,272.414 51.455 M194.481 54.470 C 194.262 54.636,193.838 54.871,193.538 54.991 C 192.960 55.223,192.167 56.045,192.167 56.411 C 192.167 56.531,192.022 56.807,191.844 57.023 C 191.528 57.410,191.528 57.399,191.849 56.418 C 192.248 55.199,192.340 55.103,193.589 54.598 C 194.809 54.105,194.994 54.078,194.481 54.470 M10.167 57.500 C 10.069 57.683,9.884 57.833,9.757 57.833 C 9.353 57.833,8.546 58.642,8.275 59.319 C 7.951 60.129,7.606 60.400,7.761 59.722 C 7.994 58.705,8.413 58.085,9.083 57.765 C 9.450 57.589,9.862 57.387,10.000 57.316 C 10.360 57.129,10.363 57.133,10.167 57.500 M76.458 57.932 C 76.665 58.163,76.831 58.441,76.829 58.551 C 76.826 58.660,76.697 58.545,76.542 58.295 C 76.387 58.045,75.995 57.723,75.672 57.581 C 75.112 57.334,75.107 57.326,75.583 57.417 C 75.858 57.470,76.252 57.701,76.458 57.932 M271.557 57.866 C 271.924 58.060,272.421 59.155,272.565 60.083 C 272.662 60.706,272.641 60.685,272.251 59.763 C 271.745 58.567,271.476 58.254,270.642 57.886 C 270.289 57.730,270.000 57.548,270.000 57.481 C 270.000 57.346,271.080 57.613,271.557 57.866 M227.958 59.832 L 229.167 59.833 229.167 64.292 L 229.167 68.750 227.993 68.694 C 226.445 68.621,226.333 68.725,226.333 70.244 L 226.333 71.448 224.022 71.553 C 220.771 71.701,220.743 71.717,220.554 73.528 L 220.453 74.500 216.077 74.500 L 211.702 74.500 211.642 73.180 C 211.568 71.548,211.613 71.590,209.861 71.553 C 208.605 71.526,208.411 71.482,208.376 71.219 C 208.342 70.962,208.359 70.967,208.490 71.250 C 208.603 71.495,208.646 71.293,208.655 70.490 C 208.671 68.965,208.497 68.774,206.972 68.652 L 205.750 68.554 206.926 68.527 C 208.581 68.489,208.708 68.361,208.639 66.810 L 208.583 65.553 209.500 65.522 C 211.201 65.466,211.493 65.190,211.498 63.635 C 211.501 62.596,211.301 62.642,215.758 62.650 C 220.430 62.659,220.333 62.695,220.333 60.921 L 220.333 59.842 222.708 59.782 C 224.015 59.749,225.458 59.747,225.917 59.776 C 226.375 59.806,227.294 59.831,227.958 59.832 M189.795 60.593 C 189.545 60.729,189.229 61.045,189.093 61.295 C 188.958 61.545,188.844 61.650,188.840 61.529 C 188.831 61.242,189.742 60.331,190.029 60.340 C 190.150 60.344,190.045 60.458,189.795 60.593 M220.000 60.914 C 220.000 61.316,219.123 62.147,218.583 62.255 C 218.178 62.337,218.220 62.291,218.805 62.013 C 219.295 61.781,219.589 61.509,219.717 61.169 C 219.928 60.611,220.000 60.546,220.000 60.914 M211.167 62.906 C 211.167 63.795,210.379 64.763,209.452 65.013 C 208.546 65.257,208.498 65.093,209.347 64.660 C 210.178 64.236,210.608 63.767,210.755 63.125 C 210.864 62.649,211.167 62.487,211.167 62.906 M298.045 63.414 C 297.749 63.542,297.355 63.896,297.171 64.199 C 296.831 64.757,296.689 64.581,297.004 63.992 C 297.193 63.639,297.944 63.180,298.333 63.180 C 298.471 63.180,298.341 63.285,298.045 63.414 M253.719 66.608 C 253.889 66.936,254.289 67.279,254.787 67.524 C 255.428 67.839,255.512 67.925,255.220 67.968 C 254.293 68.101,253.456 67.283,253.097 65.893 C 252.747 64.535,252.772 64.213,253.146 65.250 C 253.312 65.708,253.569 66.319,253.719 66.608 M274.083 66.477 C 274.779 66.793,274.996 67.096,275.400 68.313 C 275.690 69.185,275.448 68.996,274.846 67.879 C 274.533 67.299,274.227 66.993,273.714 66.750 C 273.024 66.422,272.798 66.163,273.208 66.170 C 273.323 66.172,273.717 66.310,274.083 66.477 M27.244 66.881 C 27.105 67.436,26.537 67.950,25.917 68.082 C 25.504 68.171,25.538 68.132,26.109 67.860 C 26.618 67.618,26.857 67.374,27.016 66.936 C 27.256 66.270,27.406 66.234,27.244 66.881 M207.875 69.675 C 208.127 69.948,208.333 70.337,208.333 70.538 C 208.333 70.806,208.233 70.707,207.958 70.169 C 207.688 69.641,207.420 69.374,207.000 69.216 C 206.465 69.015,206.458 69.004,206.917 69.088 C 207.192 69.138,207.623 69.402,207.875 69.675 M223.583 72.040 C 223.400 72.148,222.950 72.389,222.583 72.577 C 222.097 72.825,221.805 73.142,221.503 73.750 C 221.019 74.725,220.786 74.362,221.244 73.347 C 221.551 72.666,221.928 72.377,222.917 72.066 C 223.764 71.799,224.009 71.789,223.583 72.040 M81.114 72.178 C 81.858 72.459,82.320 72.999,82.586 73.894 C 82.920 75.020,82.815 75.016,82.236 73.881 C 81.854 73.133,81.599 72.856,81.049 72.589 C 80.045 72.103,80.094 71.791,81.114 72.178 M247.992 72.387 C 248.434 72.600,248.897 73.313,249.067 74.042 C 249.219 74.696,248.940 74.609,248.692 73.925 C 248.460 73.282,247.685 72.553,247.070 72.399 C 246.848 72.343,246.667 72.222,246.667 72.131 C 246.667 71.945,247.344 72.077,247.992 72.387 M280.509 72.172 C 280.891 72.376,281.387 73.274,281.273 73.553 C 281.227 73.666,281.187 73.635,281.180 73.481 C 281.162 73.110,280.528 72.336,280.102 72.163 C 279.908 72.085,279.849 72.016,279.969 72.011 C 280.090 72.005,280.333 72.077,280.509 72.172 M256.585 75.243 C 256.828 75.700,257.176 76.022,257.718 76.292 C 258.693 76.779,258.739 77.043,257.792 76.718 C 256.821 76.386,256.371 75.917,256.080 74.938 C 255.700 73.658,255.761 73.695,256.585 75.243 M254.666 75.249 C 254.881 75.478,255.025 75.687,254.987 75.713 C 254.948 75.739,254.715 75.552,254.469 75.297 C 254.223 75.042,254.078 74.833,254.148 74.833 C 254.218 74.833,254.451 75.021,254.666 75.249 M24.333 75.596 C 24.333 75.959,23.426 76.834,23.054 76.830 C 22.861 76.827,22.957 76.724,23.319 76.545 C 23.641 76.387,23.964 76.063,24.064 75.799 C 24.264 75.270,24.333 75.218,24.333 75.596 M255.284 78.208 C 255.245 78.415,255.212 78.246,255.212 77.833 C 255.212 77.421,255.245 77.252,255.284 77.458 C 255.324 77.665,255.324 78.002,255.284 78.208 M84.818 80.909 C 85.279 81.147,85.812 82.077,85.606 82.283 C 85.548 82.341,85.500 82.274,85.500 82.134 C 85.500 81.705,84.843 81.013,84.281 80.850 C 83.989 80.766,83.885 80.690,84.050 80.682 C 84.215 80.673,84.561 80.776,84.818 80.909 M85.784 83.542 C 85.745 83.748,85.712 83.579,85.712 83.167 C 85.712 82.754,85.745 82.585,85.784 82.792 C 85.824 82.998,85.824 83.335,85.784 83.542 M21.424 84.300 C 21.289 84.914,20.736 85.443,20.083 85.582 C 19.658 85.673,19.684 85.642,20.253 85.370 C 20.896 85.063,21.333 84.461,21.333 83.881 C 21.333 83.733,21.378 83.656,21.433 83.710 C 21.487 83.765,21.483 84.030,21.424 84.300 M85.499 84.669 C 85.279 85.200,84.574 85.678,84.050 85.652 C 83.885 85.643,83.989 85.567,84.281 85.483 C 84.843 85.320,85.500 84.628,85.500 84.200 C 85.500 84.059,85.548 83.992,85.606 84.050 C 85.664 84.108,85.616 84.387,85.499 84.669 M255.282 84.792 C 255.240 84.952,255.205 84.821,255.205 84.500 C 255.205 84.179,255.240 84.048,255.282 84.208 C 255.323 84.369,255.323 84.631,255.282 84.792 M63.560 85.083 L 63.853 85.583 63.510 85.190 C 63.321 84.973,63.167 84.717,63.167 84.620 C 63.167 84.415,63.175 84.425,63.560 85.083 M233.208 86.839 C 233.482 87.382,233.784 87.684,234.323 87.956 C 235.411 88.505,235.520 88.707,234.578 88.426 C 233.661 88.152,232.897 87.437,232.743 86.710 C 232.690 86.457,232.568 86.100,232.471 85.917 C 232.312 85.614,232.321 85.607,232.564 85.839 C 232.712 85.979,233.001 86.429,233.208 86.839 M228.585 86.659 C 228.404 87.481,227.739 88.132,226.792 88.413 C 225.654 88.751,225.654 88.662,226.791 88.063 C 227.545 87.667,227.823 87.402,228.144 86.778 C 228.590 85.912,228.759 85.866,228.585 86.659 M268.054 86.479 C 268.172 87.068,268.999 87.922,269.596 88.072 C 270.260 88.238,270.708 88.722,270.062 88.573 C 269.262 88.390,268.455 87.940,268.138 87.500 C 267.781 87.006,267.549 86.000,267.792 86.000 C 267.883 86.000,268.001 86.215,268.054 86.479 M295.769 86.542 C 295.568 87.570,294.765 88.269,293.438 88.573 C 292.792 88.722,293.240 88.238,293.904 88.072 C 294.501 87.922,295.328 87.068,295.446 86.479 C 295.499 86.215,295.617 86.000,295.708 86.000 C 295.807 86.000,295.832 86.221,295.769 86.542 M198.206 87.958 C 198.400 88.165,198.670 88.333,198.807 88.333 C 198.944 88.333,199.011 88.378,198.957 88.432 C 198.614 88.775,197.485 87.658,197.511 87.000 C 197.517 86.862,197.596 86.937,197.687 87.167 C 197.779 87.396,198.012 87.752,198.206 87.958 M254.753 87.769 C 254.464 88.210,253.565 88.676,253.047 88.654 C 252.884 88.647,253.036 88.553,253.386 88.446 C 254.102 88.225,254.827 87.603,254.846 87.191 C 254.855 87.010,254.889 86.989,254.945 87.130 C 254.993 87.248,254.906 87.535,254.753 87.769 M4.505 130.157 C 4.391 130.371,4.333 135.500,4.333 145.489 L 4.333 160.500 8.750 160.500 L 13.167 160.500 13.167 155.417 L 13.167 150.333 19.625 150.321 C 23.177 150.314,26.421 150.258,26.833 150.196 L 27.583 150.083 27.623 146.155 C 27.656 142.990,27.618 142.164,27.429 141.905 C 27.204 141.598,26.883 141.581,20.180 141.532 L 13.167 141.480 13.167 140.073 L 13.167 138.667 19.896 138.667 C 23.597 138.667,26.857 138.620,27.140 138.564 L 27.654 138.461 27.619 134.189 L 27.583 129.917 16.130 129.876 C 4.972 129.837,4.673 129.844,4.505 130.157 M48.370 129.976 C 48.025 130.191,48.153 158.617,48.500 158.837 C 48.637 158.924,49.294 158.996,49.958 158.997 L 51.167 159.000 51.167 159.750 L 51.167 160.500 61.333 160.500 L 71.500 160.500 71.500 159.750 L 71.500 159.000 72.730 159.000 C 73.670 159.000,74.013 158.935,74.188 158.724 C 74.484 158.368,74.630 130.722,74.339 130.177 C 74.169 129.860,73.982 129.846,70.096 129.846 C 65.420 129.846,65.630 129.773,65.668 131.365 C 65.682 131.943,65.687 136.448,65.680 141.375 L 65.667 150.333 64.437 150.333 C 62.880 150.333,62.774 150.446,62.862 151.998 L 62.928 153.167 61.380 153.167 L 59.833 153.167 59.833 152.072 C 59.833 150.441,59.735 150.333,58.244 150.333 L 57.000 150.333 56.983 140.542 C 56.974 135.156,56.915 130.563,56.851 130.333 L 56.735 129.917 52.659 129.880 C 50.417 129.859,48.487 129.903,48.370 129.976 M98.045 129.939 C 97.885 130.007,97.839 133.363,97.835 145.263 L 97.830 160.500 102.165 160.500 L 106.500 160.500 106.500 155.417 L 106.500 150.333 109.500 150.333 L 112.500 150.333 112.516 150.958 C 112.524 151.302,112.526 152.258,112.519 153.083 C 112.498 155.560,112.767 155.946,114.542 155.983 L 115.333 156.000 115.333 158.250 L 115.333 160.500 120.750 160.500 L 126.167 160.500 126.167 159.561 C 126.167 158.327,125.712 157.578,124.682 157.112 C 124.158 156.876,124.010 156.747,124.212 156.704 C 125.375 156.456,126.500 157.873,126.500 159.587 C 126.500 160.324,126.553 160.500,126.774 160.500 C 127.015 160.500,127.036 160.341,126.941 159.225 C 126.882 158.524,126.833 157.736,126.833 157.475 C 126.833 156.727,126.358 156.393,125.105 156.258 L 124.000 156.140 123.993 152.278 C 123.989 150.154,123.988 144.636,123.992 140.016 C 123.999 130.960,123.959 130.452,123.200 130.124 C 122.744 129.927,98.498 129.749,98.045 129.939 M144.698 130.045 C 144.557 130.216,144.505 134.242,144.502 145.388 L 144.497 160.500 148.915 160.500 L 153.333 160.500 153.333 156.633 C 153.333 153.626,153.378 152.811,153.533 152.967 C 153.652 153.085,154.220 153.167,154.925 153.167 L 156.116 153.167 156.233 155.792 C 156.371 158.928,156.346 158.886,158.086 158.973 L 159.333 159.036 159.333 159.768 L 159.333 160.500 165.083 160.500 L 170.833 160.500 170.833 145.429 C 170.833 132.256,170.802 130.326,170.583 130.107 C 170.164 129.688,162.391 129.748,162.164 130.172 C 162.068 130.351,161.991 132.612,161.979 135.614 C 161.968 138.439,161.905 140.420,161.840 140.018 C 161.693 139.112,161.407 138.894,160.178 138.751 L 159.212 138.639 159.121 137.307 C 159.010 135.686,159.120 135.795,157.500 135.701 L 156.167 135.624 156.158 134.937 C 156.106 130.809,156.082 130.511,155.790 130.218 C 155.389 129.817,145.021 129.656,144.698 130.045 M191.382 130.047 C 191.309 130.159,191.228 137.056,191.202 145.375 L 191.153 160.500 195.577 160.500 L 200.000 160.500 200.000 145.268 C 200.000 132.294,199.965 130.022,199.764 129.945 C 199.243 129.745,191.516 129.839,191.382 130.047 M220.608 129.948 C 220.545 130.010,220.499 131.952,220.506 134.262 L 220.518 138.462 221.030 138.564 C 221.311 138.621,223.257 138.667,225.354 138.667 L 229.167 138.667 229.167 149.583 L 229.167 160.500 233.583 160.500 L 238.000 160.500 238.000 149.583 L 238.000 138.667 241.813 138.667 C 243.909 138.667,245.858 138.620,246.143 138.563 L 246.660 138.460 246.622 134.188 L 246.583 129.917 233.652 129.875 C 226.540 129.853,220.670 129.885,220.608 129.948 M267.372 129.976 C 267.032 130.186,267.158 158.621,267.500 158.837 C 267.637 158.924,268.331 158.996,269.042 158.997 L 270.333 159.000 270.333 159.750 L 270.333 160.500 280.417 160.500 L 290.500 160.500 290.500 159.750 L 290.500 159.000 291.730 159.000 C 293.273 159.000,293.360 158.905,293.360 157.217 C 293.360 156.502,293.393 150.517,293.433 143.917 C 293.473 137.317,293.448 131.467,293.378 130.917 L 293.249 129.917 289.333 129.874 C 287.179 129.850,285.248 129.870,285.042 129.919 L 284.667 130.006 284.667 140.170 L 284.667 150.333 283.437 150.333 C 281.870 150.333,281.761 150.449,281.872 152.002 L 281.955 153.167 280.394 153.167 L 278.833 153.167 278.833 152.178 C 278.833 150.443,278.735 150.333,277.171 150.333 L 275.833 150.333 275.817 140.542 C 275.808 135.156,275.789 130.563,275.775 130.333 L 275.750 129.917 271.664 129.882 C 269.417 129.864,267.486 129.906,267.372 129.976 M314.041 130.025 C 313.878 130.189,313.833 133.493,313.833 145.367 L 313.833 160.500 318.250 160.500 L 322.667 160.500 322.667 155.417 L 322.667 150.333 325.583 150.333 L 328.500 150.333 328.500 151.488 C 328.500 153.005,328.662 153.167,330.179 153.167 L 331.333 153.167 331.333 156.833 L 331.333 160.500 337.067 160.500 L 342.800 160.500 342.922 158.554 C 343.201 154.089,342.907 153.333,340.892 153.333 L 340.167 153.333 340.161 152.292 C 340.158 151.719,340.135 146.750,340.110 141.250 C 340.062 130.535,340.058 130.493,339.211 130.129 C 338.523 129.833,314.333 129.733,314.041 130.025 M360.779 129.943 C 360.717 130.005,360.667 136.906,360.667 145.278 L 360.667 160.500 373.750 160.500 L 386.833 160.500 386.833 157.199 C 386.833 152.712,388.065 153.260,377.847 153.200 L 369.333 153.150 369.333 151.742 L 369.333 150.333 376.208 150.331 C 383.734 150.329,383.901 150.315,383.789 149.732 C 383.748 149.518,383.779 149.383,383.857 149.432 C 383.936 149.480,384.000 148.011,384.000 146.167 C 384.000 144.323,383.942 142.849,383.872 142.893 C 383.801 142.936,383.771 142.689,383.804 142.343 C 383.886 141.478,384.126 141.505,376.208 141.502 L 369.333 141.500 369.333 140.100 L 369.333 138.700 377.825 138.641 C 384.502 138.596,386.363 138.537,386.533 138.367 C 386.907 137.994,386.937 130.460,386.566 130.152 C 386.263 129.901,361.026 129.696,360.779 129.943 M122.636 130.853 C 123.026 131.096,123.220 131.435,123.567 132.479 C 123.854 133.346,123.619 133.166,123.012 132.056 C 122.708 131.499,122.376 131.168,121.871 130.915 C 120.806 130.383,120.647 130.143,121.539 130.412 C 121.953 130.536,122.447 130.735,122.636 130.853 M337.916 130.514 C 338.903 130.883,339.175 131.175,339.566 132.285 C 339.766 132.852,339.770 132.965,339.588 132.895 C 339.464 132.848,339.319 132.633,339.265 132.417 C 339.120 131.839,338.416 131.074,337.795 130.820 C 336.517 130.298,336.623 130.030,337.916 130.514 M155.164 130.792 C 155.479 131.078,155.699 131.469,155.751 131.833 C 155.820 132.320,155.810 132.346,155.690 131.990 C 155.412 131.166,155.136 130.804,154.612 130.576 C 154.307 130.444,154.206 130.344,154.372 130.340 C 154.531 130.336,154.888 130.540,155.164 130.792 M113.167 140.083 C 113.167 141.034,113.102 141.489,112.958 141.544 C 112.801 141.605,112.750 141.248,112.750 140.083 C 112.750 138.919,112.801 138.562,112.958 138.622 C 113.102 138.677,113.167 139.132,113.167 140.083 M329.095 140.097 L 329.106 141.583 329.046 140.172 C 329.009 139.325,328.905 138.703,328.784 138.618 C 328.642 138.516,328.656 138.494,328.833 138.542 C 329.031 138.596,329.086 138.923,329.095 140.097 M112.500 140.083 L 112.500 141.500 109.500 141.500 L 106.500 141.500 106.500 140.083 L 106.500 138.667 109.500 138.667 L 112.500 138.667 112.500 140.083 M328.500 140.083 L 328.500 141.500 325.583 141.500 L 322.667 141.500 322.667 140.083 L 322.667 138.667 325.583 138.667 L 328.500 138.667 328.500 140.083 M160.257 139.431 C 160.884 139.729,161.224 140.173,161.466 141.011 C 161.556 141.326,161.685 141.733,161.752 141.917 C 161.935 142.415,161.343 141.585,160.922 140.753 C 160.686 140.286,160.371 139.983,159.881 139.750 C 159.495 139.567,159.176 139.360,159.173 139.292 C 159.163 139.085,159.664 139.150,160.257 139.431 M113.494 153.951 C 113.861 154.618,114.453 155.106,115.243 155.392 C 115.709 155.560,115.145 155.643,114.652 155.478 C 113.921 155.234,113.222 154.584,113.089 154.023 C 113.031 153.781,112.941 153.433,112.888 153.250 C 112.749 152.768,113.008 153.067,113.494 153.951 M341.318 154.060 C 341.866 154.319,342.326 154.979,342.502 155.758 C 342.716 156.708,342.583 156.654,342.079 155.588 C 341.715 154.819,341.498 154.580,340.900 154.290 C 340.496 154.094,340.167 153.868,340.167 153.789 C 340.167 153.634,340.668 153.751,341.318 154.060 M157.518 158.176 C 157.727 158.288,158.089 158.444,158.324 158.523 C 158.679 158.643,158.654 158.653,158.167 158.584 C 157.528 158.493,156.662 157.694,156.673 157.206 C 156.677 157.039,156.777 157.140,156.910 157.445 C 157.036 157.736,157.310 158.065,157.518 158.176 " stroke="none" fill="#1c1c1c" fill-rule="evenodd"></path><path id="path2" d="M333.333 76.498 C 331.833 76.649,331.500 76.980,331.500 78.321 C 331.500 79.929,331.719 80.126,333.542 80.154 C 334.188 80.164,334.333 80.222,334.333 80.467 C 334.333 80.632,334.427 80.868,334.542 80.991 C 334.708 81.171,334.708 81.192,334.541 81.098 C 334.384 81.009,334.356 81.135,334.429 81.615 C 334.482 81.964,334.532 82.340,334.541 82.451 C 334.549 82.562,334.618 82.613,334.694 82.566 C 334.771 82.519,334.833 82.581,334.833 82.705 C 334.833 82.828,335.002 82.941,335.208 82.956 C 335.415 82.970,335.834 83.028,336.141 83.085 C 336.518 83.154,336.664 83.130,336.589 83.009 C 336.513 82.886,336.605 82.888,336.885 83.016 C 337.238 83.177,337.302 83.340,337.377 84.285 C 337.427 84.907,337.568 85.473,337.708 85.612 C 337.988 85.893,340.305 86.119,340.778 85.912 C 340.946 85.839,341.158 85.772,341.250 85.764 C 341.342 85.756,341.440 85.505,341.469 85.205 C 341.498 84.906,341.579 84.696,341.650 84.740 C 341.720 84.783,341.778 84.709,341.778 84.576 C 341.778 84.443,341.734 84.333,341.680 84.333 C 341.627 84.333,341.580 84.108,341.576 83.833 C 341.572 83.558,341.634 83.333,341.713 83.333 C 341.792 83.333,341.753 83.230,341.626 83.103 C 341.362 82.838,340.000 82.118,340.000 82.242 C 340.000 82.288,339.813 82.254,339.583 82.167 C 339.280 82.051,339.166 82.064,339.164 82.212 C 339.162 82.360,339.122 82.354,339.020 82.194 C 338.943 82.072,338.832 81.978,338.773 81.986 C 338.447 82.029,338.324 81.983,338.408 81.848 C 338.460 81.764,338.408 81.664,338.293 81.626 C 338.179 81.587,338.077 81.450,338.068 81.320 C 338.058 81.190,338.039 80.889,338.025 80.651 C 337.994 80.110,337.423 79.430,337.105 79.552 C 336.973 79.602,336.815 79.593,336.752 79.530 C 336.690 79.468,336.589 79.414,336.528 79.410 C 336.291 79.395,335.337 78.820,335.359 78.705 C 335.613 77.378,334.680 76.362,333.333 76.498 M345.648 85.572 C 345.613 85.607,345.289 85.681,344.929 85.738 C 344.141 85.862,343.818 86.100,343.955 86.456 C 344.030 86.653,343.995 86.684,343.820 86.579 C 343.622 86.459,343.619 86.480,343.800 86.703 C 343.967 86.909,343.970 86.999,343.816 87.094 C 343.681 87.178,343.655 87.142,343.737 86.984 C 343.803 86.855,343.743 86.891,343.603 87.063 C 343.371 87.348,343.381 87.405,343.716 87.701 C 343.918 87.879,343.990 87.978,343.875 87.920 C 343.760 87.861,343.664 87.912,343.661 88.032 C 343.658 88.166,343.562 88.126,343.411 87.926 C 343.198 87.644,343.167 87.639,343.167 87.885 C 343.167 88.040,343.246 88.167,343.343 88.167 C 343.440 88.167,343.463 88.260,343.395 88.375 C 343.322 88.496,343.400 88.478,343.580 88.333 C 343.869 88.101,343.884 88.111,343.790 88.476 C 343.701 88.819,343.739 88.858,344.089 88.792 C 344.308 88.750,344.516 88.798,344.550 88.899 C 344.593 89.024,344.701 89.010,344.890 88.855 C 345.070 88.706,345.167 88.691,345.167 88.813 C 345.167 88.916,345.284 89.000,345.427 89.000 C 345.580 89.000,345.638 88.922,345.567 88.808 C 345.485 88.675,345.521 88.662,345.683 88.766 C 345.903 88.908,347.000 89.010,347.000 88.889 C 347.000 88.858,346.844 88.677,346.653 88.486 C 346.330 88.163,346.325 88.119,346.581 87.836 C 346.764 87.633,346.796 87.496,346.675 87.422 C 346.576 87.360,346.534 87.246,346.582 87.168 C 346.882 86.683,346.769 86.023,346.351 85.815 C 345.729 85.506,345.720 85.503,345.648 85.572 " stroke="none" fill="#c8c010" fill-rule="evenodd"></path><path id="path3" d="M23.712 19.747 C 23.167 19.984,22.493 20.874,22.511 21.333 C 22.517 21.471,22.595 21.397,22.686 21.170 C 22.933 20.551,23.342 20.154,24.083 19.813 C 24.856 19.459,24.515 19.398,23.712 19.747 M171.713 22.781 C 172.060 22.947,172.490 23.308,172.670 23.583 C 172.850 23.858,172.998 23.991,172.999 23.878 C 173.001 23.511,172.097 22.681,171.583 22.579 C 171.126 22.487,171.137 22.505,171.713 22.781 M236.414 23.028 C 236.666 23.226,236.973 23.620,237.096 23.903 C 237.220 24.185,237.323 24.302,237.327 24.162 C 237.338 23.714,236.493 22.686,236.103 22.672 C 236.021 22.669,236.161 22.829,236.414 23.028 M140.569 25.570 C 139.989 25.823,139.331 26.576,139.337 26.981 C 139.339 27.129,139.463 27.003,139.611 26.701 C 139.887 26.142,140.195 25.902,141.083 25.554 C 141.358 25.447,141.471 25.356,141.333 25.353 C 141.196 25.349,140.852 25.447,140.569 25.570 M137.014 25.880 C 137.368 26.118,137.683 26.536,137.863 27.005 C 138.020 27.415,138.153 27.654,138.158 27.536 C 138.186 26.859,137.160 25.500,136.620 25.500 C 136.527 25.500,136.704 25.671,137.014 25.880 M192.487 31.821 C 192.219 32.088,192.000 32.405,192.000 32.524 C 192.000 32.643,192.121 32.568,192.269 32.356 C 192.418 32.145,192.774 31.828,193.061 31.653 C 193.437 31.424,193.498 31.334,193.279 31.334 C 193.111 31.334,192.755 31.553,192.487 31.821 M66.583 34.426 C 66.858 34.575,67.252 34.896,67.458 35.140 C 67.663 35.384,67.832 35.504,67.833 35.406 C 67.834 35.130,66.963 34.383,66.500 34.263 C 66.138 34.169,66.149 34.190,66.583 34.426 M149.685 36.750 C 149.649 37.363,149.003 38.181,148.288 38.521 C 147.763 38.771,147.704 38.830,148.059 38.754 C 149.047 38.542,149.973 37.437,149.780 36.702 C 149.719 36.469,149.702 36.478,149.685 36.750 M35.767 42.751 C 35.571 43.547,35.191 44.005,34.445 44.344 C 34.063 44.517,33.851 44.661,33.975 44.663 C 34.823 44.677,36.192 43.158,35.959 42.461 C 35.921 42.346,35.834 42.477,35.767 42.751 M274.476 43.856 C 274.141 44.210,273.941 44.500,274.030 44.500 C 274.250 44.500,275.167 43.570,275.167 43.346 C 275.167 43.116,275.188 43.100,274.476 43.856 M271.965 52.174 C 271.812 52.441,271.438 52.811,271.135 52.996 C 270.831 53.181,270.658 53.332,270.750 53.332 C 271.124 53.332,272.019 52.638,272.175 52.227 C 272.407 51.618,272.299 51.591,271.965 52.174 M192.796 54.926 C 192.546 55.062,192.265 55.317,192.171 55.492 C 191.905 55.988,191.970 56.117,192.269 55.689 C 192.418 55.478,192.774 55.161,193.061 54.986 C 193.672 54.614,193.460 54.566,192.796 54.926 M8.865 57.838 C 8.562 58.023,8.205 58.432,8.073 58.748 C 7.724 59.585,7.786 59.869,8.147 59.083 C 8.487 58.342,8.884 57.933,9.503 57.686 C 9.731 57.595,9.804 57.517,9.667 57.511 C 9.529 57.506,9.168 57.653,8.865 57.838 M270.918 57.748 C 271.575 58.036,271.942 58.458,272.236 59.261 C 272.368 59.622,272.480 59.804,272.485 59.667 C 272.505 59.038,271.834 57.983,271.261 57.744 C 270.537 57.441,270.229 57.445,270.918 57.748 M211.013 62.919 C 210.990 63.513,210.407 64.382,209.823 64.695 C 209.511 64.863,209.380 65.000,209.531 65.000 C 210.232 65.000,211.363 63.417,211.110 62.790 C 211.064 62.676,211.020 62.735,211.013 62.919 M253.252 66.417 C 253.415 67.176,254.354 68.008,255.033 67.996 C 255.153 67.994,254.929 67.847,254.536 67.669 C 253.999 67.425,253.738 67.168,253.483 66.631 C 253.212 66.060,253.166 66.017,253.252 66.417 M273.566 66.428 C 274.427 66.744,274.662 66.957,275.023 67.750 C 275.190 68.117,275.328 68.316,275.330 68.192 C 275.344 67.326,274.081 66.152,273.167 66.182 C 273.029 66.187,273.209 66.297,273.566 66.428 M80.995 72.304 C 81.464 72.483,81.882 72.798,82.120 73.153 C 82.329 73.462,82.500 73.640,82.500 73.547 C 82.500 73.007,81.141 71.980,80.464 72.009 C 80.346 72.014,80.585 72.147,80.995 72.304 M222.238 72.336 C 221.602 72.651,220.994 73.495,221.004 74.047 C 221.006 74.159,221.144 73.950,221.311 73.583 C 221.671 72.790,221.906 72.577,222.768 72.261 C 223.125 72.131,223.304 72.018,223.167 72.012 C 223.029 72.005,222.611 72.151,222.238 72.336 M247.850 72.545 C 248.162 72.753,248.548 73.184,248.708 73.503 C 248.868 73.822,248.999 73.971,248.999 73.833 C 248.998 73.393,248.347 72.497,247.906 72.329 C 247.247 72.079,247.233 72.133,247.850 72.545 M256.013 74.630 C 255.969 75.365,257.020 76.672,257.647 76.663 C 257.796 76.661,257.670 76.537,257.368 76.389 C 256.808 76.113,256.569 75.805,256.221 74.917 C 256.113 74.642,256.020 74.513,256.013 74.630 M267.755 86.491 C 267.903 87.516,268.574 88.218,269.583 88.402 C 270.055 88.489,270.052 88.483,269.526 88.302 C 268.771 88.041,268.074 87.309,267.854 86.547 L 267.672 85.917 267.755 86.491 M228.363 86.801 C 228.153 87.501,227.661 87.962,226.750 88.311 L 226.250 88.502 226.750 88.410 C 227.680 88.239,228.842 86.942,228.631 86.309 C 228.596 86.204,228.475 86.425,228.363 86.801 M295.595 86.626 C 295.445 87.293,294.718 88.045,293.974 88.302 C 293.443 88.484,293.441 88.489,293.917 88.406 C 294.857 88.241,296.012 86.936,295.789 86.291 C 295.749 86.177,295.662 86.327,295.595 86.626 M232.671 86.500 C 232.662 87.231,233.663 88.229,234.583 88.408 C 234.982 88.485,234.952 88.454,234.434 88.253 C 233.566 87.916,233.336 87.704,232.977 86.917 C 232.810 86.550,232.673 86.362,232.671 86.500 M337.073 130.317 C 337.127 130.403,337.396 130.524,337.673 130.585 C 338.390 130.742,339.112 131.411,339.342 132.130 C 339.451 132.471,339.612 132.825,339.699 132.917 C 339.787 133.008,339.705 132.675,339.517 132.177 C 339.328 131.678,339.075 131.170,338.952 131.048 C 338.679 130.775,336.937 130.097,337.073 130.317 M122.167 130.792 C 122.546 130.982,122.881 131.343,123.125 131.827 C 123.540 132.650,123.649 132.448,123.247 131.601 C 122.998 131.076,122.245 130.500,121.808 130.500 C 121.684 130.500,121.846 130.632,122.167 130.792 M112.892 140.083 C 112.892 140.908,112.920 141.267,112.955 140.880 C 112.990 140.493,112.990 139.818,112.956 139.380 C 112.922 138.942,112.893 139.258,112.892 140.083 M160.006 139.542 C 160.543 139.812,160.859 140.125,161.142 140.667 C 161.434 141.226,161.506 141.296,161.426 140.941 C 161.264 140.225,160.877 139.725,160.257 139.431 C 159.392 139.021,159.169 139.120,160.006 139.542 M113.087 153.917 C 113.194 154.433,113.927 155.334,114.240 155.333 C 114.337 155.332,114.212 155.163,113.962 154.958 C 113.712 154.752,113.389 154.321,113.245 154.000 C 112.996 153.444,112.988 153.440,113.087 153.917 M341.221 154.172 C 341.648 154.405,341.964 154.753,342.176 155.219 C 342.350 155.603,342.494 155.819,342.496 155.700 C 342.507 155.065,341.702 154.114,341.000 153.931 C 340.724 153.859,340.799 153.941,341.221 154.172 M125.281 157.158 C 126.001 157.597,126.210 158.043,126.340 159.417 L 126.451 160.583 126.476 159.628 C 126.513 158.154,125.763 156.830,124.891 156.834 C 124.813 156.834,124.989 156.980,125.281 157.158 " stroke="none" fill="#547010" fill-rule="evenodd"></path><path id="path4" d="M29.070 5.024 C 28.698 5.204,28.167 5.991,28.167 6.359 C 28.167 6.482,28.298 6.321,28.459 6.000 C 28.625 5.666,29.000 5.292,29.333 5.125 C 29.654 4.965,29.804 4.839,29.667 4.845 C 29.529 4.851,29.261 4.932,29.070 5.024 M55.333 5.125 C 55.667 5.292,56.041 5.666,56.208 6.000 C 56.368 6.321,56.500 6.486,56.500 6.367 C 56.500 5.936,56.016 5.227,55.588 5.032 C 54.902 4.720,54.683 4.800,55.333 5.125 M24.070 19.816 C 23.405 20.118,22.668 20.861,22.666 21.231 C 22.665 21.333,22.551 21.634,22.413 21.900 C 22.274 22.166,22.192 22.414,22.230 22.452 C 22.268 22.490,22.494 22.110,22.732 21.607 C 23.181 20.657,23.776 20.063,24.444 19.895 C 24.658 19.841,24.833 19.730,24.833 19.649 C 24.833 19.461,24.871 19.452,24.070 19.816 M61.372 19.791 C 61.622 19.946,61.944 20.338,62.086 20.662 C 62.333 21.222,62.341 21.226,62.250 20.750 C 62.152 20.240,61.475 19.496,61.116 19.504 C 61.006 19.507,61.121 19.636,61.372 19.791 M170.167 22.230 C 170.167 22.266,170.567 22.484,171.056 22.715 C 171.943 23.135,172.833 23.989,172.833 24.420 C 172.833 24.545,172.904 24.690,172.989 24.743 C 173.212 24.881,172.929 23.968,172.588 23.446 C 172.431 23.208,171.960 22.890,171.528 22.731 C 171.100 22.574,170.679 22.382,170.592 22.306 C 170.429 22.163,170.167 22.117,170.167 22.230 M107.917 22.535 C 107.537 22.753,107.180 23.173,107.172 23.412 C 107.169 23.501,107.289 23.400,107.438 23.187 C 107.587 22.974,107.944 22.697,108.230 22.573 C 108.516 22.448,108.638 22.346,108.500 22.345 C 108.362 22.344,108.100 22.429,107.917 22.535 M234.833 22.423 C 234.833 22.465,235.172 22.657,235.586 22.852 C 236.347 23.210,236.857 23.763,237.077 24.471 C 237.143 24.684,237.235 24.820,237.282 24.774 C 237.441 24.615,236.991 23.550,236.615 23.197 C 236.271 22.874,234.833 22.249,234.833 22.423 M268.551 22.502 C 268.075 22.693,267.693 23.291,267.586 24.009 L 267.501 24.583 267.681 24.000 C 267.905 23.275,268.270 22.853,268.917 22.567 C 269.467 22.324,269.138 22.265,268.551 22.502 M294.583 22.552 C 295.243 22.863,295.602 23.288,295.804 24.000 C 295.895 24.321,295.977 24.450,295.985 24.286 C 296.028 23.443,295.386 22.591,294.582 22.422 L 294.083 22.317 294.583 22.552 M103.527 26.115 C 103.512 26.958,103.556 27.682,103.625 27.725 C 103.694 27.768,103.729 27.303,103.704 26.693 C 103.624 24.760,103.554 24.533,103.527 26.115 M135.506 25.214 C 135.646 25.371,136.093 25.668,136.498 25.875 C 137.023 26.142,137.346 26.462,137.619 26.988 C 138.144 27.995,138.212 28.025,137.900 27.110 C 137.619 26.286,137.059 25.726,136.348 25.557 C 136.111 25.501,135.767 25.337,135.583 25.192 C 135.272 24.945,135.267 24.946,135.506 25.214 M141.591 25.321 C 141.539 25.405,141.272 25.524,140.998 25.584 C 140.345 25.727,139.616 26.470,139.384 27.228 C 139.134 28.041,139.227 27.990,139.750 27.030 C 140.174 26.251,140.874 25.667,141.383 25.667 C 141.519 25.667,141.674 25.554,141.727 25.417 C 141.833 25.142,141.742 25.077,141.591 25.321 M175.440 25.487 C 175.728 25.662,176.003 25.906,176.052 26.028 C 176.108 26.169,176.145 26.178,176.154 26.054 C 176.169 25.830,175.382 25.166,175.103 25.167 C 175.000 25.168,175.152 25.311,175.440 25.487 M198.292 25.513 C 197.973 25.699,197.496 26.521,197.507 26.867 C 197.510 26.986,197.614 26.852,197.737 26.569 C 197.860 26.286,198.167 25.893,198.420 25.694 C 198.891 25.323,198.811 25.211,198.292 25.513 M41.417 26.382 C 41.233 26.662,40.821 26.985,40.500 27.100 C 40.179 27.214,40.018 27.314,40.141 27.321 C 40.589 27.346,41.458 26.808,41.650 26.387 C 41.926 25.782,41.811 25.779,41.417 26.382 M326.892 31.488 C 326.367 31.808,325.889 32.794,326.057 33.210 C 326.103 33.324,326.147 33.267,326.154 33.083 C 326.177 32.523,326.810 31.661,327.378 31.414 C 327.674 31.285,327.804 31.177,327.667 31.174 C 327.529 31.171,327.181 31.312,326.892 31.488 M193.083 31.640 C 192.414 32.049,192.217 32.311,191.920 33.181 C 191.700 33.829,191.699 33.878,191.918 33.593 C 192.055 33.415,192.167 33.182,192.167 33.074 C 192.167 32.696,192.897 31.955,193.570 31.649 C 194.003 31.453,194.129 31.340,193.917 31.338 C 193.733 31.336,193.358 31.472,193.083 31.640 M256.885 34.168 C 256.410 34.360,256.027 34.956,255.917 35.675 L 255.830 36.250 256.040 35.665 C 256.367 34.755,256.543 34.536,257.168 34.265 C 257.777 34.001,257.519 33.913,256.885 34.168 M66.333 34.555 C 66.945 34.864,67.201 35.147,67.720 36.092 C 68.331 37.201,68.357 37.200,67.931 36.083 C 67.510 34.980,66.588 34.154,65.798 34.171 C 65.680 34.174,65.921 34.346,66.333 34.555 M38.527 35.186 C 38.411 35.372,38.076 35.628,37.783 35.755 C 37.490 35.883,37.347 35.990,37.467 35.993 C 37.829 36.004,38.620 35.530,38.734 35.232 C 38.891 34.823,38.770 34.796,38.527 35.186 M45.896 35.055 C 45.953 35.223,46.000 35.390,46.000 35.426 C 46.000 35.540,46.974 36.000,47.200 35.993 C 47.319 35.990,47.183 35.885,46.896 35.761 C 46.610 35.636,46.245 35.358,46.084 35.142 C 45.879 34.867,45.823 34.841,45.896 35.055 M119.794 36.451 C 120.001 36.491,120.301 36.490,120.460 36.448 C 120.620 36.406,120.450 36.374,120.083 36.375 C 119.717 36.377,119.586 36.411,119.794 36.451 M157.794 36.451 C 158.001 36.491,158.301 36.490,158.460 36.448 C 158.620 36.406,158.450 36.374,158.083 36.375 C 157.717 36.377,157.586 36.411,157.794 36.451 M214.875 36.448 C 215.035 36.490,215.298 36.490,215.458 36.448 C 215.619 36.406,215.487 36.372,215.167 36.372 C 214.846 36.372,214.715 36.406,214.875 36.448 M225.542 36.448 C 225.702 36.490,225.965 36.490,226.125 36.448 C 226.285 36.406,226.154 36.372,225.833 36.372 C 225.512 36.372,225.381 36.406,225.542 36.448 M289.708 36.448 C 289.869 36.490,290.131 36.490,290.292 36.448 C 290.452 36.406,290.321 36.372,290.000 36.372 C 289.679 36.372,289.548 36.406,289.708 36.448 M149.250 37.236 C 149.024 37.698,148.701 38.025,148.247 38.255 C 147.563 38.601,146.692 39.167,146.843 39.167 C 147.734 39.167,149.790 37.412,149.638 36.781 C 149.608 36.657,149.433 36.861,149.250 37.236 M281.027 37.738 C 280.813 38.330,280.488 38.596,279.676 38.842 C 279.336 38.945,279.317 38.974,279.583 38.985 C 280.344 39.016,281.490 37.885,281.293 37.296 C 281.265 37.212,281.145 37.411,281.027 37.738 M111.548 38.617 C 111.345 38.827,111.239 39.000,111.313 39.000 C 111.476 39.000,112.082 38.352,111.985 38.282 C 111.947 38.255,111.751 38.406,111.548 38.617 M108.701 40.815 C 108.584 41.081,108.247 41.416,107.952 41.562 C 107.598 41.736,107.520 41.827,107.721 41.830 C 108.093 41.834,109.000 40.959,109.000 40.596 C 109.000 40.225,108.945 40.266,108.701 40.815 M210.714 41.450 C 210.511 41.661,210.406 41.833,210.480 41.833 C 210.643 41.833,211.249 41.185,211.152 41.116 C 211.114 41.089,210.917 41.239,210.714 41.450 M35.473 42.958 C 35.174 43.542,34.850 43.873,34.242 44.217 C 33.447 44.668,33.801 44.686,34.679 44.240 C 35.247 43.951,35.447 43.691,35.740 42.861 C 36.062 41.950,35.973 41.983,35.473 42.958 M274.942 42.883 C 274.696 43.471,273.788 44.333,273.414 44.333 C 273.289 44.333,273.143 44.404,273.090 44.489 C 273.030 44.586,273.199 44.586,273.534 44.490 C 274.225 44.292,274.958 43.560,275.156 42.871 C 275.356 42.174,275.235 42.180,274.942 42.883 M254.083 42.898 C 253.456 43.171,253.222 43.451,253.088 44.084 C 252.988 44.562,252.995 44.558,253.250 44.002 C 253.541 43.369,253.774 43.186,254.665 42.888 C 255.017 42.770,255.117 42.690,254.917 42.686 C 254.733 42.683,254.358 42.778,254.083 42.898 M14.417 43.035 C 13.985 43.282,13.677 43.685,13.679 44.000 C 13.679 44.137,13.791 44.045,13.927 43.795 C 14.063 43.545,14.378 43.229,14.628 43.093 C 14.879 42.958,15.008 42.846,14.917 42.845 C 14.825 42.844,14.600 42.929,14.417 43.035 M70.131 43.168 C 70.432 43.352,70.746 43.670,70.829 43.876 C 70.911 44.082,70.981 44.137,70.984 44.000 C 70.991 43.673,70.674 43.269,70.219 43.027 C 69.613 42.704,69.545 42.811,70.131 43.168 M48.667 43.383 C 48.666 43.678,49.171 44.466,49.424 44.563 C 49.842 44.723,49.950 44.676,49.614 44.480 C 49.447 44.383,49.166 44.067,48.989 43.777 C 48.813 43.487,48.668 43.310,48.667 43.383 M105.895 46.369 C 105.803 46.689,105.510 47.065,105.178 47.289 C 104.540 47.719,104.618 47.787,105.328 47.420 C 105.761 47.196,106.332 46.109,106.125 45.903 C 106.084 45.861,105.980 46.071,105.895 46.369 M143.693 46.758 C 143.587 46.992,143.256 47.289,142.958 47.418 C 142.619 47.566,142.531 47.656,142.721 47.660 C 143.047 47.667,144.000 46.812,144.000 46.513 C 144.000 46.224,143.900 46.304,143.693 46.758 M252.705 47.667 C 252.705 47.987,252.740 48.119,252.782 47.958 C 252.823 47.798,252.823 47.535,252.782 47.375 C 252.740 47.215,252.705 47.346,252.705 47.667 M211.795 48.287 C 212.094 48.325,212.544 48.324,212.795 48.286 C 213.045 48.248,212.800 48.217,212.250 48.218 C 211.700 48.219,211.495 48.250,211.795 48.287 M204.060 48.910 C 203.680 49.176,203.225 50.114,203.394 50.283 C 203.452 50.341,203.500 50.274,203.500 50.134 C 203.500 49.783,204.137 49.003,204.565 48.830 C 204.789 48.739,204.824 48.684,204.662 48.677 C 204.522 48.671,204.251 48.776,204.060 48.910 M272.266 51.002 C 271.871 52.098,271.420 52.643,270.596 53.017 C 270.164 53.214,270.038 53.327,270.250 53.329 C 271.117 53.337,271.957 52.478,272.418 51.109 C 272.780 50.037,272.646 49.943,272.266 51.002 M194.350 54.397 C 194.245 54.523,193.929 54.673,193.647 54.729 C 193.044 54.850,192.000 55.832,192.000 56.280 C 192.000 56.452,191.881 56.778,191.737 57.005 L 191.473 57.417 191.820 57.023 C 192.011 56.807,192.167 56.531,192.167 56.411 C 192.167 56.045,192.960 55.223,193.538 54.991 C 194.147 54.747,194.971 54.167,194.710 54.167 C 194.617 54.167,194.455 54.270,194.350 54.397 M75.672 57.581 C 75.995 57.723,76.387 58.045,76.542 58.295 C 76.697 58.545,76.826 58.660,76.829 58.551 C 76.837 58.191,76.093 57.514,75.583 57.417 C 75.107 57.326,75.112 57.334,75.672 57.581 M9.417 57.734 C 9.142 57.855,8.791 58.096,8.637 58.269 C 8.294 58.654,7.604 60.225,7.843 60.078 C 7.937 60.019,8.132 59.678,8.275 59.319 C 8.545 58.645,9.352 57.833,9.753 57.833 C 9.878 57.833,10.027 57.758,10.083 57.667 C 10.220 57.446,10.024 57.466,9.417 57.734 M270.569 57.839 C 271.489 58.298,271.782 58.604,272.101 59.441 C 272.461 60.383,272.586 60.285,272.247 59.326 C 271.932 58.433,271.591 58.043,270.858 57.736 C 270.023 57.388,269.814 57.462,270.569 57.839 M225.294 59.785 C 225.501 59.824,225.801 59.823,225.960 59.781 C 226.120 59.739,225.950 59.707,225.583 59.709 C 225.217 59.711,225.086 59.745,225.294 59.785 M189.321 60.821 C 189.053 61.088,188.836 61.407,188.840 61.529 C 188.844 61.650,188.958 61.545,189.093 61.295 C 189.229 61.045,189.545 60.729,189.795 60.593 C 190.045 60.458,190.150 60.344,190.029 60.340 C 189.907 60.336,189.588 60.553,189.321 60.821 M219.606 61.416 C 219.551 61.562,219.185 61.833,218.794 62.018 C 218.218 62.292,218.178 62.336,218.583 62.251 C 219.095 62.144,219.975 61.420,219.803 61.248 C 219.751 61.195,219.662 61.271,219.606 61.416 M210.773 63.083 C 210.605 63.767,210.189 64.230,209.363 64.651 C 208.531 65.076,208.459 65.220,209.208 64.964 C 210.315 64.585,211.125 63.615,210.959 62.868 C 210.916 62.679,210.854 62.751,210.773 63.083 M297.685 63.399 C 297.466 63.521,297.187 63.799,297.066 64.018 C 296.713 64.655,296.801 64.806,297.171 64.199 C 297.355 63.896,297.749 63.542,298.045 63.414 C 298.341 63.285,298.471 63.179,298.333 63.179 C 298.196 63.179,297.904 63.278,297.685 63.399 M253.096 65.500 C 253.416 66.756,253.819 67.346,254.591 67.687 C 255.612 68.139,255.734 67.977,254.737 67.494 C 254.074 67.173,253.884 66.963,253.473 66.100 C 253.208 65.541,253.038 65.271,253.096 65.500 M27.021 66.920 C 26.855 67.381,26.631 67.608,26.109 67.845 C 25.728 68.018,25.514 68.161,25.633 68.163 C 26.319 68.175,27.474 67.005,27.298 66.477 C 27.267 66.385,27.143 66.585,27.021 66.920 M273.667 66.692 C 274.207 66.974,274.537 67.306,274.846 67.879 C 275.492 69.077,275.700 69.173,275.151 68.021 C 274.647 66.963,274.253 66.598,273.417 66.411 C 273.012 66.321,273.060 66.375,273.667 66.692 M207.000 69.216 C 207.416 69.372,207.696 69.648,207.975 70.176 C 208.298 70.787,208.348 70.829,208.257 70.417 C 208.114 69.771,207.549 69.212,206.917 69.092 C 206.463 69.006,206.471 69.017,207.000 69.216 M223.083 72.107 C 222.808 72.238,222.396 72.436,222.167 72.548 C 221.770 72.741,220.866 74.255,221.041 74.430 C 221.087 74.476,221.303 74.154,221.521 73.715 C 221.805 73.142,222.105 72.821,222.583 72.577 C 223.920 71.894,224.322 71.517,223.083 72.107 M280.102 72.163 C 280.530 72.336,281.167 73.116,281.167 73.467 C 281.167 73.607,281.214 73.675,281.272 73.616 C 281.601 73.288,280.538 71.982,279.964 72.011 C 279.846 72.016,279.908 72.085,280.102 72.163 M81.015 72.549 C 81.532 72.818,81.859 73.145,82.118 73.653 C 82.592 74.583,82.694 74.676,82.501 74.002 C 82.262 73.169,81.863 72.662,81.242 72.403 C 80.353 72.031,80.205 72.127,81.015 72.549 M247.250 72.480 C 248.023 72.835,248.380 73.199,248.751 74.005 C 249.008 74.565,249.013 74.567,248.914 74.083 C 248.714 73.111,247.725 72.164,246.917 72.171 C 246.701 72.173,246.818 72.282,247.250 72.480 M326.093 73.380 C 326.218 73.708,326.807 74.082,326.959 73.930 C 327.012 73.877,326.971 73.833,326.868 73.833 C 326.764 73.833,326.522 73.665,326.330 73.458 C 326.063 73.173,326.006 73.154,326.093 73.380 M256.212 74.921 C 256.455 75.715,257.118 76.378,257.912 76.622 C 258.663 76.852,258.561 76.718,257.626 76.248 C 257.151 76.008,256.813 75.671,256.549 75.170 C 256.044 74.215,255.981 74.169,256.212 74.921 M254.469 75.297 C 254.715 75.552,254.948 75.739,254.987 75.713 C 255.083 75.648,254.306 74.833,254.148 74.833 C 254.078 74.833,254.223 75.042,254.469 75.297 M24.064 75.799 C 23.964 76.063,23.641 76.387,23.319 76.545 C 22.957 76.724,22.861 76.827,23.054 76.830 C 23.426 76.834,24.333 75.959,24.333 75.596 C 24.333 75.218,24.264 75.270,24.064 75.799 M255.212 77.833 C 255.212 78.246,255.245 78.415,255.284 78.208 C 255.324 78.002,255.324 77.665,255.284 77.458 C 255.245 77.252,255.212 77.421,255.212 77.833 M0.377 80.620 C 0.631 80.658,1.006 80.657,1.211 80.617 C 1.416 80.578,1.208 80.546,0.750 80.548 C 0.292 80.549,0.124 80.581,0.377 80.620 M84.813 81.105 C 85.026 81.254,85.303 81.610,85.427 81.896 C 85.552 82.183,85.657 82.318,85.660 82.197 C 85.675 81.708,84.999 80.852,84.588 80.839 C 84.499 80.836,84.600 80.955,84.813 81.105 M391.857 82.506 C 391.640 82.686,391.541 82.833,391.636 82.833 C 391.805 82.833,392.333 82.382,392.333 82.238 C 392.333 82.124,392.274 82.158,391.857 82.506 M85.712 83.167 C 85.712 83.579,85.745 83.748,85.784 83.542 C 85.824 83.335,85.824 82.998,85.784 82.792 C 85.745 82.585,85.712 82.754,85.712 83.167 M389.106 83.937 C 388.954 84.581,388.399 85.119,387.557 85.439 L 386.917 85.682 387.491 85.589 C 388.522 85.421,389.456 84.439,389.291 83.697 C 389.252 83.521,389.183 83.611,389.106 83.937 M21.353 83.867 C 21.310 84.494,20.892 85.066,20.253 85.370 C 19.687 85.640,19.661 85.673,20.082 85.581 C 20.888 85.407,21.612 84.494,21.446 83.864 C 21.377 83.604,21.371 83.604,21.353 83.867 M85.500 84.235 C 85.500 84.395,85.281 84.745,85.013 85.013 C 84.472 85.553,84.566 85.690,85.122 85.172 C 85.500 84.821,85.760 84.204,85.599 84.043 C 85.544 83.989,85.500 84.075,85.500 84.235 M255.205 84.500 C 255.205 84.821,255.240 84.952,255.282 84.792 C 255.323 84.631,255.323 84.369,255.282 84.208 C 255.240 84.048,255.205 84.179,255.205 84.500 M63.167 84.620 C 63.167 84.717,63.321 84.973,63.510 85.190 L 63.853 85.583 63.560 85.083 C 63.175 84.425,63.167 84.415,63.167 84.620 M0.377 85.786 C 0.631 85.825,1.006 85.824,1.211 85.784 C 1.416 85.744,1.208 85.713,0.750 85.714 C 0.292 85.716,0.124 85.748,0.377 85.786 M232.876 86.671 C 233.199 87.313,233.584 87.827,233.833 87.948 C 234.899 88.468,235.401 88.667,235.239 88.506 C 235.142 88.409,234.730 88.162,234.323 87.956 C 233.784 87.684,233.482 87.382,233.208 86.839 C 233.001 86.429,232.721 85.983,232.584 85.846 C 232.447 85.709,232.579 86.081,232.876 86.671 M228.143 86.780 C 227.855 87.342,227.536 87.670,227.008 87.949 C 226.061 88.449,225.970 88.550,226.679 88.309 C 227.633 87.986,228.121 87.541,228.391 86.750 C 228.717 85.792,228.647 85.801,228.143 86.780 M267.848 86.225 C 267.826 86.690,268.316 87.617,268.723 87.879 C 269.243 88.214,270.167 88.508,270.167 88.338 C 270.167 88.258,269.941 88.144,269.666 88.083 C 269.031 87.944,268.216 87.136,268.017 86.447 C 267.933 86.156,267.857 86.055,267.848 86.225 M295.446 86.479 C 295.322 87.098,294.473 87.943,293.834 88.083 C 293.559 88.144,293.333 88.255,293.333 88.331 C 293.333 88.592,294.545 88.096,294.987 87.654 C 295.423 87.218,295.927 86.000,295.672 86.000 C 295.600 86.000,295.499 86.215,295.446 86.479 M197.511 87.000 C 197.485 87.658,198.614 88.775,198.957 88.432 C 199.011 88.378,198.944 88.333,198.807 88.333 C 198.497 88.333,197.908 87.719,197.687 87.167 C 197.596 86.937,197.517 86.862,197.511 87.000 M254.701 87.482 C 254.584 87.747,254.247 88.083,253.952 88.228 C 253.598 88.403,253.520 88.494,253.721 88.496 C 254.093 88.501,255.000 87.626,255.000 87.263 C 255.000 86.892,254.945 86.932,254.701 87.482 M340.505 87.946 C 340.499 88.200,340.966 88.668,341.220 88.662 C 341.328 88.659,341.288 88.581,341.130 88.490 C 340.973 88.398,340.769 88.194,340.677 88.036 C 340.585 87.879,340.508 87.838,340.505 87.946 M346.433 89.500 C 346.670 90.790,347.090 91.229,348.253 91.404 L 348.917 91.503 348.146 91.253 C 347.248 90.961,347.087 90.795,346.650 89.718 C 346.369 89.024,346.340 88.995,346.433 89.500 M355.292 91.956 C 355.773 91.990,356.560 91.990,357.042 91.956 C 357.523 91.923,357.129 91.895,356.167 91.895 C 355.204 91.895,354.810 91.923,355.292 91.956 M367.958 91.956 C 368.440 91.990,369.227 91.990,369.708 91.956 C 370.190 91.923,369.796 91.895,368.833 91.895 C 367.871 91.895,367.477 91.923,367.958 91.956 M166.208 129.948 C 166.369 129.990,166.631 129.990,166.792 129.948 C 166.952 129.906,166.821 129.872,166.500 129.872 C 166.179 129.872,166.048 129.906,166.208 129.948 M120.955 130.355 C 121.068 130.468,121.480 130.720,121.871 130.915 C 122.376 131.168,122.708 131.499,123.012 132.056 C 123.679 133.276,123.890 133.354,123.288 132.158 C 122.967 131.520,122.582 131.007,122.333 130.885 C 121.214 130.339,120.767 130.167,120.955 130.355 M154.613 130.577 C 154.904 130.703,155.257 131.019,155.398 131.278 C 155.538 131.538,155.656 131.650,155.660 131.529 C 155.670 131.202,154.740 130.332,154.388 130.340 C 154.194 130.344,154.276 130.430,154.613 130.577 M337.750 130.798 C 338.527 131.173,338.884 131.538,339.251 132.338 C 339.508 132.898,339.513 132.901,339.414 132.417 C 339.213 131.440,338.565 130.791,337.583 130.583 C 337.153 130.492,337.176 130.522,337.750 130.798 M328.999 140.049 L 329.081 141.583 329.131 140.182 C 329.158 139.412,329.122 138.721,329.049 138.648 C 328.976 138.575,328.954 139.205,328.999 140.049 M113.059 140.083 C 113.059 140.908,113.087 141.267,113.122 140.880 C 113.157 140.493,113.157 139.818,113.123 139.380 C 113.088 138.942,113.060 139.258,113.059 140.083 M159.173 139.289 C 159.176 139.359,159.495 139.567,159.881 139.750 C 160.371 139.983,160.686 140.286,160.922 140.753 C 161.242 141.387,161.941 142.441,161.804 142.083 C 161.503 141.299,160.840 140.044,160.639 139.879 C 160.287 139.588,159.165 139.137,159.173 139.289 M340.042 141.250 C 340.044 141.617,340.078 141.747,340.118 141.540 C 340.158 141.332,340.156 141.032,340.115 140.873 C 340.073 140.714,340.040 140.883,340.042 141.250 M27.542 147.083 C 27.544 147.450,27.578 147.580,27.618 147.373 C 27.658 147.166,27.656 146.866,27.615 146.706 C 27.573 146.547,27.540 146.717,27.542 147.083 M340.042 150.583 C 340.044 150.950,340.078 151.080,340.118 150.873 C 340.158 150.666,340.156 150.366,340.115 150.206 C 340.073 150.047,340.040 150.217,340.042 150.583 M113.188 153.808 C 113.572 154.733,114.125 155.244,114.927 155.416 C 115.320 155.500,115.268 155.443,114.667 155.125 C 114.140 154.847,113.791 154.499,113.494 153.956 C 112.892 152.855,112.766 152.794,113.188 153.808 M340.861 154.254 C 341.491 154.582,341.721 154.833,342.074 155.579 C 342.314 156.086,342.542 156.500,342.581 156.500 C 342.668 156.500,342.254 155.309,342.005 154.842 C 341.818 154.493,340.684 153.827,340.298 153.841 C 340.180 153.845,340.433 154.031,340.861 154.254 M124.000 156.763 C 124.000 156.803,124.301 156.956,124.669 157.104 C 125.619 157.484,126.062 158.186,126.182 159.500 L 126.281 160.583 126.307 159.620 C 126.350 158.025,125.830 157.215,124.520 156.839 C 124.234 156.757,124.000 156.723,124.000 156.763 M156.673 157.221 C 156.666 157.573,157.535 158.503,157.862 158.493 C 157.984 158.490,157.871 158.372,157.612 158.231 C 157.352 158.091,157.037 157.737,156.910 157.446 C 156.764 157.109,156.677 157.028,156.673 157.221 M342.885 159.583 C 342.886 160.133,342.917 160.338,342.954 160.039 C 342.991 159.739,342.990 159.289,342.952 159.039 C 342.914 158.788,342.884 159.033,342.885 159.583 M159.214 159.750 C 159.216 160.208,159.248 160.376,159.286 160.123 C 159.325 159.869,159.324 159.494,159.284 159.289 C 159.244 159.084,159.213 159.292,159.214 159.750 M270.214 159.750 C 270.216 160.208,270.248 160.376,270.286 160.123 C 270.325 159.869,270.324 159.494,270.284 159.289 C 270.244 159.084,270.213 159.292,270.214 159.750 " stroke="none" fill="#581c10" fill-rule="evenodd"></path></g></svg>